<svg width="40" height="40" viewBox="0 0 40 40" fill="none" xmlns="http://www.w3.org/2000/svg">
<g clip-path="url(#clip0_238_496)">
<path d="M33.8615 13.4052C31.3115 12.2936 28.5782 11.4719 25.7198 11.0048C25.6944 11 25.668 11.0031 25.6444 11.0135C25.6208 11.0239 25.6012 11.0411 25.5882 11.0627C25.2382 11.6572 24.8482 12.4321 24.5748 13.0443C21.5433 12.6065 18.4613 12.6065 15.4298 13.0443C15.1254 12.3658 14.7821 11.7043 14.4015 11.0627C14.3886 11.0408 14.3691 11.0232 14.3456 11.0123C14.322 11.0013 14.2956 10.9976 14.2698 11.0015C11.4132 11.4687 8.67982 12.2903 6.12816 13.4035C6.10621 13.4124 6.08759 13.4276 6.07482 13.447C0.888158 20.8174 -0.533509 28.0057 0.164825 35.1038C0.166768 35.1212 0.17235 35.138 0.181233 35.1532C0.190115 35.1685 0.202111 35.1818 0.216491 35.1924C3.24381 37.3228 6.62039 38.9457 10.2048 39.9932C10.2298 40.0006 10.2565 40.0006 10.2815 39.9931C10.3065 39.9857 10.3286 39.9711 10.3448 39.9513C11.1148 38.9525 11.8015 37.8973 12.3882 36.7889C12.4232 36.7245 12.3898 36.6471 12.3198 36.6213C11.2432 36.2294 10.2 35.7565 9.19983 35.2069C9.18185 35.197 9.16671 35.1829 9.15575 35.1659C9.1448 35.149 9.13837 35.1296 9.13705 35.1097C9.13573 35.0897 9.13955 35.0697 9.14818 35.0516C9.15681 35.0334 9.16998 35.0176 9.18649 35.0055C9.39649 34.8557 9.60649 34.6994 9.80649 34.5432C9.82449 34.5291 9.84618 34.5202 9.86913 34.5173C9.89208 34.5145 9.9154 34.5178 9.93649 34.527C16.4815 37.3689 23.5698 37.3689 30.0382 34.527C30.0593 34.5173 30.0829 34.5135 30.1061 34.516C30.1294 34.5186 30.1515 34.5274 30.1698 34.5415C30.3698 34.6994 30.5782 34.8557 30.7898 35.0055C30.8065 35.0173 30.8199 35.0329 30.8288 35.0509C30.8377 35.069 30.8418 35.0888 30.8408 35.1088C30.8399 35.1287 30.8338 35.1481 30.8231 35.1653C30.8125 35.1824 30.7976 35.1967 30.7798 35.2069C29.7832 35.7611 28.7465 36.2299 27.6582 36.6197C27.6414 36.6256 27.6262 36.6348 27.6135 36.6469C27.6008 36.6589 27.5908 36.6734 27.5844 36.6894C27.5779 36.7054 27.5751 36.7225 27.576 36.7397C27.5769 36.7569 27.5816 36.7736 27.5898 36.7889C28.1898 37.8957 28.8765 38.9492 29.6315 39.9497C29.6472 39.9702 29.6691 39.9856 29.6941 39.9936C29.7192 40.0017 29.7462 40.0021 29.7715 39.9948C33.3621 38.9503 36.7442 37.3266 39.7748 35.1924C39.7896 35.1824 39.802 35.1695 39.8112 35.1545C39.8204 35.1395 39.8262 35.1227 39.8282 35.1054C40.6615 26.8989 38.4315 19.7686 33.9132 13.4503C33.9021 13.4297 33.8837 13.4137 33.8615 13.4052ZM13.3665 30.7815C11.3965 30.7815 9.77149 29.0593 9.77149 26.9473C9.77149 24.8336 11.3648 23.1131 13.3665 23.1131C15.3832 23.1131 16.9932 24.8481 16.9615 26.9473C16.9615 29.0609 15.3682 30.7815 13.3665 30.7815ZM26.6582 30.7815C24.6865 30.7815 23.0632 29.0593 23.0632 26.9473C23.0632 24.8336 24.6548 23.1131 26.6582 23.1131C28.6748 23.1131 30.2848 24.8481 30.2532 26.9473C30.2532 29.0609 28.6765 30.7815 26.6582 30.7815Z" fill="white"/>
</g>
<defs>
<clipPath id="clip0_238_496">
<rect width="40" height="40" fill="white"/>
</clipPath>
</defs>
</svg>
